<svg xmlns="http://www.w3.org/2000/svg" xmlns:xlink="http://www.w3.org/1999/xlink" width="92" zoomAndPan="magnify" viewBox="0 0 69 30.000001" height="40" preserveAspectRatio="xMidYMid meet" version="1.0"><defs><g/></defs><g fill="#ff3131" fill-opacity="1"><g transform="translate(20.737996, 18.947696)"><g><path d="M 0.796875 -6.046875 L 1.578125 -0.21875 L 0.453125 -0.0625 L -0.625 -8.09375 L 0.953125 -8.296875 L 2.890625 -3.671875 L 2.25 -8.46875 L 3.375 -8.625 L 4.453125 -0.59375 L 3.15625 -0.421875 Z M 0.796875 -6.046875 "/></g></g></g><g fill="#ff3131" fill-opacity="1"><g transform="translate(25.65016, 18.290759)"><g/></g></g><g fill="#ff3131" fill-opacity="1"><g transform="translate(25.517258, 18.314102)"><g><path d="M 1.359375 -4.828125 L 3.09375 -4.96875 L 3.1875 -3.796875 L 1.453125 -3.65625 L 1.640625 -1.296875 L 3.828125 -1.46875 L 3.921875 -0.3125 L 0.46875 -0.03125 L -0.1875 -8.109375 L 3.265625 -8.390625 L 3.359375 -7.25 L 1.171875 -7.078125 Z M 1.359375 -4.828125 "/></g></g></g><g fill="#ff3131" fill-opacity="1"><g transform="translate(29.778708, 17.968345)"><g/></g></g><g fill="#ff3131" fill-opacity="1"><g transform="translate(29.651584, 17.976569)"><g><path d="M -0.15625 -8.109375 L 3.796875 -8.25 L 3.828125 -7.09375 L 2.484375 -7.046875 L 2.71875 -0.09375 L 1.453125 -0.046875 L 1.21875 -7 L -0.125 -6.953125 Z M -0.15625 -8.109375 "/></g></g></g><g fill="#ff3131" fill-opacity="1"><g transform="translate(33.82265, 17.837407)"><g/></g></g><g fill="#ff3131" fill-opacity="1"><g transform="translate(33.708433, 17.840696)"><g><path d="M 1.796875 -4.5 L 3.453125 -4.46875 L 3.4375 -3.296875 L 1.78125 -3.328125 L 1.734375 0.015625 L 0.46875 0 L 0.578125 -8.109375 L 3.953125 -8.0625 L 3.9375 -6.90625 L 1.828125 -6.9375 Z M 1.796875 -4.5 "/></g></g></g><g fill="#ff3131" fill-opacity="1"><g transform="translate(37.700048, 17.891339)"><g/></g></g><g fill="#ff3131" fill-opacity="1"><g transform="translate(37.584895, 17.887665)"><g><path d="M 0.9375 -8.0625 L 2.203125 -8 L 1.796875 -1.0625 L 3.90625 -0.9375 L 3.84375 0.21875 L 0.46875 0.03125 Z M 0.9375 -8.0625 "/></g></g></g><g fill="#ff3131" fill-opacity="1"><g transform="translate(41.536271, 18.115049)"><g/></g></g><g fill="#ff3131" fill-opacity="1"><g transform="translate(41.444027, 18.123198)"><g><path d="M 1.21875 -8.03125 L 2.484375 -7.921875 L 1.734375 0.15625 L 0.46875 0.046875 Z M 1.21875 -8.03125 "/></g></g></g><g fill="#ff3131" fill-opacity="1"><g transform="translate(43.646075, 18.326819)"><g/></g></g><g fill="#ff3131" fill-opacity="1"><g transform="translate(43.54066, 18.286751)"><g><path d="M 5.75 -7.40625 L 3.90625 -3.6875 L 4.765625 0.640625 L 3.4375 0.453125 L 2.828125 -2.859375 L 1.359375 0.1875 L 0.171875 0.015625 L 2.125 -3.921875 L 1.34375 -8 L 2.65625 -7.8125 L 3.203125 -4.734375 L 4.578125 -7.5625 Z M 5.75 -7.40625 "/></g></g></g><g fill="#ff3131" fill-opacity="1"><g transform="translate(48.486675, 18.947227)"><g/></g></g></svg>